<svg width="114" height="114" viewBox="0 0 114 114" fill="none" xmlns="http://www.w3.org/2000/svg">
<path d="M100.75 0.75H13.25C9.93479 0.75 6.75537 2.06696 4.41116 4.41116C2.06696 6.75537 0.75 9.93479 0.75 13.25V100.75C0.75 104.065 2.06696 107.245 4.41116 109.589C6.75537 111.933 9.93479 113.25 13.25 113.25H100.75C104.065 113.25 107.245 111.933 109.589 109.589C111.933 107.245 113.25 104.065 113.25 100.75V13.25C113.25 9.93479 111.933 6.75537 109.589 4.41116C107.245 2.06696 104.065 0.75 100.75 0.75ZM50.75 82H44.5C34.4375 82 19.5 75.375 19.5 57C19.5 38.6875 34.4375 32 44.5 32H50.75V44.5H44.5C41.625 44.5 32 45.5625 32 57C32 68.875 42.4375 69.5 44.5 69.5H50.75V82ZM75.75 50.75V63.25H38.25V50.75H75.75ZM69.5 82H63.25V69.5H69.5C72.375 69.5 82 68.4375 82 57C82 45.125 71.5625 44.5 69.5 44.5H63.25V32H69.5C79.5625 32 94.5 38.6875 94.5 57C94.5 75.375 79.5625 82 69.5 82Z" fill="#4BD4C0"/>
</svg>
